<svg width="221" height="73" viewBox="0 0 221 73" fill="none" xmlns="http://www.w3.org/2000/svg">
<path d="M202.493 9.9921e-05H17.5304C16.8562 9.9921e-05 16.1901 9.99211e-05 15.5177 0.00374992C14.9548 0.00739992 14.3964 0.0180032 13.8281 0.0269274C12.5935 0.0413482 11.3618 0.149159 10.1437 0.349423C8.92735 0.554047 7.74908 0.939821 6.64877 1.4937C5.5498 2.05226 4.54564 2.77806 3.67272 3.64475C2.79522 4.50901 2.06376 5.50798 1.50645 6.60324C0.947613 7.69633 0.560111 8.86766 0.357331 10.0768C0.152624 11.2844 0.0424686 12.506 0.0278547 13.7305C0.0107926 14.29 0.00899073 14.8514 0 15.411V57.5946C0.00899073 58.1612 0.0107926 58.7102 0.0278547 59.277C0.0424731 60.5015 0.152628 61.7229 0.357331 62.9305C0.559551 64.1403 0.947076 65.3123 1.50645 66.4058C2.0635 67.4976 2.79507 68.4925 3.67272 69.3519C4.54233 70.2225 5.54714 70.9488 6.64877 71.5031C7.74907 72.0584 8.92721 72.4465 10.1437 72.6543C11.362 72.8529 12.5936 72.9608 13.8281 72.9769C14.3964 72.9893 14.9548 72.9965 15.5177 72.9965C16.1901 73.0001 16.8562 73.0001 17.5304 73.0001H202.493C203.154 73.0001 203.826 73.0001 204.486 72.9965C205.047 72.9965 205.621 72.9893 206.181 72.9769C207.414 72.9617 208.643 72.8538 209.859 72.6543C211.079 72.445 212.261 72.0571 213.367 71.5031C214.468 70.9485 215.471 70.2222 216.34 69.3519C217.216 68.4891 217.949 67.4949 218.513 66.4058C219.068 65.3116 219.452 64.1396 219.651 62.9305C219.856 61.7228 219.97 60.5016 219.992 59.277C220 58.7102 220 58.1612 220 57.5946C220.014 56.9315 220.014 56.2722 220.014 55.5984V17.4035C220.014 16.7352 220.014 16.0722 220 15.411C220 14.8514 220 14.29 219.992 13.7304C219.97 12.5058 219.856 11.2845 219.651 10.0767C219.451 8.86829 219.068 7.69704 218.513 6.60317C217.378 4.40783 215.578 2.62085 213.367 1.49353C212.261 0.941011 211.079 0.555339 209.859 0.349259C208.643 0.148113 207.414 0.0402641 206.181 0.0266719C205.621 0.0177659 205.047 0.00707142 204.486 0.00351267C203.826 -0.000137329 203.154 -0.000137329 202.493 -0.000137329V9.9921e-05Z" fill="#A6A6A6"/>
<path d="M15.527 71.4031C14.9668 71.4031 14.4201 71.396 13.8644 71.3836C12.713 71.3687 11.5643 71.2692 10.4278 71.0859C9.36798 70.9047 8.34134 70.5677 7.38169 70.086C6.43085 69.6083 5.5636 68.9818 4.81317 68.2307C4.05189 67.4884 3.41808 66.6275 2.93687 65.6821C2.45036 64.7305 2.11366 63.7105 1.93851 62.6577C1.74937 61.5264 1.64703 60.3825 1.63239 59.2358C1.62073 58.8509 1.60547 57.5694 1.60547 57.5694V15.4109C1.60547 15.4109 1.62172 14.1491 1.63248 13.7784C1.6465 12.6335 1.74824 11.4914 1.93682 10.3618C2.11229 9.30612 2.44925 8.2832 2.93602 7.32851C3.41546 6.38373 4.04575 5.52218 4.80246 4.77725C5.55831 4.02525 6.42833 3.39559 7.38079 2.91125C8.33823 2.43106 9.36294 2.09642 10.4206 1.91856C11.5609 1.73344 12.7135 1.63336 13.8689 1.61915L15.5279 1.59686H204.478L206.157 1.62004C207.301 1.63354 208.444 1.73273 209.573 1.91677C210.642 2.09687 211.677 2.43384 212.645 2.91659C214.554 3.89269 216.106 5.43696 217.086 7.33297C217.565 8.28107 217.896 9.29564 218.07 10.3422C218.261 11.481 218.367 12.6322 218.389 13.7864C218.395 14.3032 218.395 14.8584 218.395 15.4109C218.409 16.0953 218.409 16.7467 218.409 17.4034V55.5982C218.409 56.2613 218.409 56.9082 218.395 57.5605C218.395 58.154 218.395 58.6976 218.387 59.2572C218.366 60.3908 218.261 61.5214 218.073 62.6398C217.902 63.7003 217.567 64.7282 217.08 65.6876C216.596 66.6227 215.966 67.4762 215.213 68.2165C214.462 68.9716 213.593 69.6017 212.64 70.0825C211.674 70.568 210.641 70.9062 209.573 71.0859C208.437 71.2702 207.288 71.3697 206.137 71.3836C205.598 71.396 205.034 71.4031 204.487 71.4031L202.494 71.4068L15.527 71.4031Z" fill="black"/>
<path d="M45.5403 37.0488C45.56 35.5255 45.9677 34.032 46.7252 32.7071C47.4828 31.3822 48.5656 30.2691 49.873 29.4712C49.0425 28.2938 47.9468 27.3249 46.6729 26.6413C45.3991 25.9577 43.9822 25.5784 42.5349 25.5335C39.4474 25.2118 36.4543 27.3673 34.881 27.3673C33.2773 27.3673 30.8549 25.5654 28.2464 25.6187C26.5592 25.6728 24.9149 26.1598 23.4736 27.0323C22.0324 27.9047 20.8434 29.1329 20.0225 30.597C16.4667 36.7079 19.119 45.6888 22.5252 50.6284C24.2294 53.0472 26.2211 55.749 28.8273 55.6532C31.3775 55.5482 32.33 54.039 35.4083 54.039C38.4581 54.039 39.3517 55.6532 42.0107 55.5922C44.7473 55.5482 46.4714 53.1627 48.1158 50.7211C49.3403 48.9976 50.2825 47.0928 50.9076 45.0772C49.3177 44.4098 47.961 43.2926 47.0065 41.8649C46.0521 40.4372 45.5421 38.7622 45.5403 37.0488Z" fill="white"/>
<path d="M40.5179 22.2849C42.01 20.507 42.7451 18.2218 42.5671 15.9145C40.2875 16.1522 38.1819 17.2336 36.6696 18.9433C35.9303 19.7786 35.364 20.7503 35.0032 21.8029C34.6424 22.8555 34.4941 23.9683 34.5668 25.0779C35.707 25.0895 36.835 24.8442 37.8658 24.3604C38.8967 23.8766 39.8035 23.167 40.5179 22.2849Z" fill="white"/>
<path d="M77.7778 49.5299H69.075L66.985 55.6554H63.2988L71.542 32.9925H75.3718L83.615 55.6554H79.8659L77.7778 49.5299ZM69.9763 46.7032H76.8747L73.474 36.762H73.3789L69.9763 46.7032Z" fill="white"/>
<path d="M101.417 47.3948C101.417 52.5294 98.6479 55.8283 94.4697 55.8283C93.4113 55.8833 92.3587 55.6413 91.4325 55.13C90.5062 54.6188 89.7437 53.8589 89.2322 52.9375H89.1532V61.1215H85.7363V39.1324H89.0437V41.8806H89.1065C89.6415 40.9636 90.4169 40.2077 91.3502 39.6933C92.2835 39.179 93.3399 38.9254 94.4069 38.9595C98.6316 38.9595 101.417 42.2745 101.417 47.3948ZM97.9045 47.3948C97.9045 44.0496 96.1629 41.8503 93.5055 41.8503C90.8949 41.8503 89.1388 44.0959 89.1388 47.3948C89.1388 50.724 90.8949 52.9536 93.5055 52.9536C96.1629 52.9536 97.9045 50.7704 97.9045 47.3948Z" fill="white"/>
<path d="M119.739 47.3948C119.739 52.5294 116.97 55.8283 112.792 55.8283C111.734 55.8833 110.681 55.6413 109.755 55.13C108.828 54.6188 108.066 53.8589 107.555 52.9375H107.475V61.1215H104.059V39.1324H107.366V41.8806H107.429C107.964 40.9636 108.739 40.2077 109.672 39.6933C110.606 39.179 111.662 38.9254 112.729 38.9595C116.954 38.9595 119.739 42.2745 119.739 47.3948ZM116.227 47.3948C116.227 44.0496 114.485 41.8503 111.828 41.8503C109.217 41.8503 107.461 44.0959 107.461 47.3948C107.461 50.724 109.217 52.9536 111.828 52.9536C114.485 52.9536 116.227 50.7704 116.227 47.3948H116.227Z" fill="white"/>
<path d="M131.847 49.341C132.1 51.5884 134.3 53.064 137.306 53.064C140.186 53.064 142.258 51.5883 142.258 49.5619C142.258 47.8028 141.008 46.7496 138.049 46.0277L135.09 45.3202C130.898 44.315 128.951 42.3688 128.951 39.2107C128.951 35.3005 132.384 32.6147 137.259 32.6147C142.083 32.6147 145.391 35.3005 145.502 39.2107H142.053C141.846 36.9491 139.963 35.5839 137.21 35.5839C134.458 35.5839 132.574 36.9651 132.574 38.9755C132.574 40.5777 133.777 41.5205 136.72 42.2422L139.236 42.8553C143.92 43.9549 145.867 45.8228 145.867 49.1376C145.867 53.3776 142.464 56.0331 137.052 56.0331C131.989 56.0331 128.57 53.4399 128.35 49.3408L131.847 49.341Z" fill="white"/>
<path d="M153.242 35.2221V39.1323H156.407V41.8181H153.242V50.9271C153.242 52.3422 153.876 53.0016 155.267 53.0016C155.643 52.9951 156.018 52.9689 156.391 52.9231V55.5929C155.766 55.709 155.13 55.7615 154.493 55.7498C151.123 55.7498 149.809 54.4933 149.809 51.2888V41.8181H147.389V39.1323H149.809V35.2221H153.242Z" fill="white"/>
<path d="M158.24 47.3947C158.24 42.196 161.325 38.9292 166.135 38.9292C170.961 38.9292 174.032 42.1959 174.032 47.3947C174.032 52.6078 170.978 55.8603 166.135 55.8603C161.294 55.8603 158.24 52.6077 158.24 47.3947ZM170.55 47.3947C170.55 43.8285 168.904 41.7237 166.135 41.7237C163.366 41.7237 161.722 43.8445 161.722 47.3947C161.722 50.9752 163.366 53.064 166.135 53.064C168.904 53.064 170.55 50.9752 170.55 47.3947H170.55Z" fill="white"/>
<path d="M176.848 39.1323H180.107V41.9447H180.186C180.406 41.0663 180.924 40.2901 181.654 39.7465C182.383 39.2028 183.278 38.9249 184.19 38.9594C184.583 38.9581 184.976 39.0005 185.36 39.086V42.2584C184.863 42.1076 184.345 42.0384 183.825 42.0534C183.329 42.0334 182.834 42.1203 182.374 42.3081C181.915 42.4958 181.502 42.78 181.164 43.1412C180.826 43.5023 180.57 43.9319 180.415 44.4003C180.26 44.8687 180.208 45.3649 180.265 45.8549V55.6554H176.848L176.848 39.1323Z" fill="white"/>
<path d="M201.115 50.8023C200.656 53.8018 197.713 55.8603 193.948 55.8603C189.105 55.8603 186.1 52.6398 186.1 47.4731C186.1 42.2904 189.121 38.9292 193.804 38.9292C198.41 38.9292 201.306 42.0694 201.306 47.0793V48.2413H189.549V48.4462C189.495 49.0543 189.571 49.6669 189.774 50.2433C189.976 50.8197 190.3 51.3468 190.724 51.7894C191.147 52.2321 191.661 52.5802 192.23 52.8107C192.8 53.0412 193.412 53.1488 194.027 53.1264C194.834 53.2014 195.644 53.0158 196.337 52.5971C197.03 52.1784 197.568 51.5489 197.871 50.8023L201.115 50.8023ZM189.565 45.8709H197.887C197.918 45.3242 197.834 44.777 197.642 44.2638C197.449 43.7506 197.152 43.2824 196.769 42.8886C196.385 42.4949 195.924 42.184 195.414 41.9756C194.904 41.7671 194.356 41.6656 193.804 41.6773C193.248 41.6741 192.696 41.7802 192.181 41.9896C191.666 42.199 191.198 42.5075 190.804 42.8974C190.41 43.2873 190.098 43.7508 189.885 44.2611C189.672 44.7715 189.563 45.3186 189.565 45.8709V45.8709Z" fill="white"/>
<path d="M69.5467 15.9341C70.263 15.8831 70.9818 15.9905 71.6513 16.2486C72.3207 16.5067 72.9241 16.9091 73.4179 17.4267C73.9118 17.9443 74.2837 18.5643 74.5069 19.2418C74.7301 19.9194 74.799 20.6377 74.7087 21.3449C74.7087 24.8238 72.8145 26.8236 69.5467 26.8236H65.584V15.9341H69.5467ZM67.2879 25.2836H69.3563C69.8682 25.3139 70.3804 25.2306 70.8558 25.0397C71.3311 24.8488 71.7576 24.555 72.1042 24.1799C72.4508 23.8047 72.7087 23.3576 72.8592 22.871C73.0097 22.3844 73.049 21.8707 72.9742 21.3671C73.0436 20.8655 73.0003 20.3549 72.8475 19.8719C72.6946 19.3889 72.4361 18.9454 72.0903 18.5733C71.7445 18.2011 71.3201 17.9095 70.8474 17.7192C70.3748 17.529 69.8656 17.4449 69.3563 17.4729H67.2879V25.2836Z" fill="white"/>
<path d="M76.6337 22.711C76.5817 22.1709 76.6439 21.626 76.8164 21.1112C76.989 20.5965 77.268 20.1232 77.6356 19.7217C78.0032 19.3202 78.4513 18.9995 78.9511 18.78C79.451 18.5605 79.9915 18.4471 80.538 18.4471C81.0846 18.4471 81.6251 18.5605 82.1249 18.78C82.6248 18.9995 83.0729 19.3202 83.4405 19.7217C83.8081 20.1232 84.0871 20.5965 84.2596 21.1112C84.4322 21.626 84.4944 22.1709 84.4424 22.711C84.4954 23.2516 84.4339 23.7972 84.2618 24.3128C84.0897 24.8284 83.8109 25.3026 83.4432 25.7048C83.0755 26.1071 82.6271 26.4285 82.1267 26.6485C81.6264 26.8685 81.0852 26.9821 80.538 26.9821C79.9908 26.9821 79.4497 26.8685 78.9493 26.6485C78.449 26.4285 78.0006 26.1071 77.6329 25.7048C77.2652 25.3026 76.9863 24.8284 76.8142 24.3128C76.6422 23.7972 76.5807 23.2516 76.6337 22.711ZM82.7618 22.711C82.7618 20.9296 81.9556 19.8879 80.5407 19.8879C79.1205 19.8879 78.3215 20.9296 78.3215 22.711C78.3215 24.5066 79.1205 25.5403 80.5407 25.5403C81.9556 25.5402 82.7618 24.4994 82.7618 22.711H82.7618Z" fill="white"/>
<path d="M94.8212 26.8234H93.1263L91.4152 20.7709H91.2859L89.582 26.8234H87.9032L85.6211 18.6055H87.2783L88.7614 24.8762H88.8835L90.5857 18.6055H92.1531L93.8553 24.8762H93.9845L95.4604 18.6055H97.0943L94.8212 26.8234Z" fill="white"/>
<path d="M99.0137 18.6056H100.587V19.911H100.709C100.916 19.4422 101.265 19.0491 101.708 18.7867C102.151 18.5242 102.665 18.4055 103.179 18.4469C103.582 18.4169 103.987 18.4772 104.363 18.6233C104.739 18.7695 105.077 18.9978 105.352 19.2914C105.628 19.5849 105.833 19.9361 105.953 20.3191C106.072 20.702 106.104 21.1068 106.045 21.5034V26.8233H104.411V21.9107C104.411 20.5901 103.833 19.9333 102.624 19.9333C102.351 19.9207 102.078 19.9669 101.824 20.0688C101.57 20.1707 101.342 20.3258 101.154 20.5236C100.966 20.7214 100.824 20.9572 100.736 21.2148C100.649 21.4723 100.619 21.7456 100.648 22.0158V26.8234H99.0137L99.0137 18.6056Z" fill="white"/>
<path d="M108.648 15.3975H110.282V26.8234H108.648V15.3975Z" fill="white"/>
<path d="M112.554 22.7109C112.502 22.1708 112.564 21.6259 112.736 21.1111C112.909 20.5963 113.188 20.123 113.556 19.7215C113.923 19.3201 114.371 18.9993 114.871 18.7798C115.371 18.5603 115.912 18.4469 116.458 18.4469C117.005 18.4469 117.546 18.5603 118.045 18.7798C118.545 18.9993 118.993 19.3201 119.361 19.7215C119.729 20.123 120.008 20.5963 120.18 21.1111C120.353 21.6259 120.415 22.1708 120.363 22.7109C120.416 23.2516 120.355 23.7972 120.182 24.3128C120.01 24.8284 119.731 25.3026 119.364 25.7048C118.996 26.1071 118.547 26.4285 118.047 26.6485C117.547 26.8684 117.006 26.9821 116.458 26.9821C115.911 26.9821 115.37 26.8684 114.87 26.6485C114.369 26.4285 113.921 26.1071 113.553 25.7048C113.185 25.3026 112.906 24.8284 112.734 24.3128C112.562 23.7972 112.501 23.2516 112.554 22.7109ZM118.682 22.7109C118.682 20.9296 117.875 19.8879 116.461 19.8879C115.04 19.8879 114.241 20.9296 114.241 22.7109C114.241 24.5065 115.04 25.5402 116.461 25.5402C117.875 25.5402 118.682 24.4994 118.682 22.7109H118.682Z" fill="white"/>
<path d="M122.084 24.4994C122.084 23.0201 123.194 22.1673 125.163 22.0461L127.406 21.9178V21.2085C127.406 20.3405 126.828 19.8504 125.711 19.8504C124.799 19.8504 124.167 20.1828 123.985 20.7638H122.404C122.571 19.3523 123.908 18.4469 125.786 18.4469C127.862 18.4469 129.033 19.4726 129.033 21.2085V26.8234H127.46V25.6685H127.33C127.068 26.0828 126.7 26.4205 126.263 26.6472C125.826 26.8739 125.336 26.9814 124.844 26.9588C124.496 26.9947 124.145 26.9579 123.812 26.8507C123.48 26.7436 123.174 26.5685 122.914 26.3368C122.654 26.1051 122.446 25.8219 122.303 25.5054C122.16 25.1889 122.085 24.8462 122.084 24.4994ZM127.406 23.7972V23.1101L125.384 23.2384C124.244 23.3142 123.727 23.6991 123.727 24.4236C123.727 25.1632 124.373 25.5936 125.262 25.5936C125.522 25.6198 125.786 25.5937 126.036 25.5169C126.286 25.4401 126.518 25.3141 126.718 25.1465C126.918 24.9789 127.082 24.7731 127.2 24.5412C127.318 24.3094 127.388 24.0564 127.406 23.7972Z" fill="white"/>
<path d="M131.18 22.7109C131.18 20.1142 132.525 18.4692 134.616 18.4692C135.134 18.4456 135.647 18.5686 136.097 18.8239C136.546 19.0792 136.913 19.4562 137.155 19.911H137.277V15.3975H138.911V26.8234H137.346V25.525H137.216C136.956 25.9767 136.576 26.349 136.118 26.6018C135.659 26.8545 135.14 26.978 134.616 26.9588C132.51 26.9589 131.18 25.3139 131.18 22.7109ZM132.868 22.7109C132.868 24.4539 133.695 25.5028 135.08 25.5028C136.457 25.5028 137.308 24.4388 137.308 22.7181C137.308 21.0053 136.448 19.9262 135.08 19.9262C133.704 19.9262 132.867 20.9821 132.867 22.7109H132.868Z" fill="white"/>
<path d="M145.671 22.711C145.619 22.1709 145.681 21.626 145.854 21.1112C146.026 20.5965 146.305 20.1232 146.673 19.7217C147.04 19.3202 147.488 18.9995 147.988 18.78C148.488 18.5605 149.029 18.4471 149.575 18.4471C150.122 18.4471 150.662 18.5605 151.162 18.78C151.662 18.9995 152.11 19.3202 152.478 19.7217C152.845 20.1232 153.124 20.5965 153.297 21.1112C153.469 21.626 153.531 22.1709 153.479 22.711C153.532 23.2516 153.471 23.7972 153.299 24.3128C153.127 24.8284 152.848 25.3026 152.48 25.7048C152.113 26.1071 151.664 26.4285 151.164 26.6485C150.663 26.8685 150.122 26.9821 149.575 26.9821C149.028 26.9821 148.487 26.8685 147.986 26.6485C147.486 26.4285 147.038 26.1071 146.67 25.7048C146.302 25.3026 146.023 24.8284 145.851 24.3128C145.679 23.7972 145.618 23.2516 145.671 22.711ZM151.799 22.711C151.799 20.9296 150.993 19.8879 149.578 19.8879C148.158 19.8879 147.359 20.9296 147.359 22.711C147.359 24.5066 148.158 25.5403 149.578 25.5403C150.993 25.5402 151.799 24.4994 151.799 22.711Z" fill="white"/>
<path d="M155.672 18.6056H157.245V19.911H157.367C157.574 19.4422 157.923 19.0491 158.366 18.7867C158.809 18.5242 159.323 18.4055 159.837 18.4469C160.24 18.4169 160.645 18.4772 161.021 18.6233C161.397 18.7695 161.735 18.9978 162.011 19.2914C162.286 19.5849 162.491 19.9361 162.611 20.3191C162.731 20.702 162.762 21.1068 162.703 21.5034V26.8233H161.069V21.9107C161.069 20.5901 160.491 19.9333 159.283 19.9333C159.009 19.9207 158.736 19.9669 158.482 20.0688C158.228 20.1707 158 20.3258 157.812 20.5236C157.624 20.7214 157.482 20.9572 157.394 21.2148C157.307 21.4723 157.277 21.7456 157.306 22.0158V26.8234H155.672V18.6056Z" fill="white"/>
<path d="M171.936 16.5595V18.643H173.73V20.009H171.936V24.2347C171.936 25.0955 172.294 25.4725 173.107 25.4725C173.315 25.4718 173.523 25.4593 173.73 25.435V26.786C173.437 26.8381 173.139 26.8658 172.841 26.8688C171.024 26.8688 170.301 26.2343 170.301 24.65V20.009H168.986V18.6429H170.301V16.5595H171.936Z" fill="white"/>
<path d="M175.961 15.3975H177.58V19.9262H177.71C177.927 19.4529 178.286 19.0576 178.738 18.7942C179.189 18.5308 179.712 18.412 180.234 18.454C180.635 18.4324 181.035 18.4988 181.407 18.6485C181.779 18.7983 182.113 19.0276 182.386 19.3202C182.658 19.6129 182.862 19.9615 182.983 20.3414C183.104 20.7212 183.139 21.1229 183.085 21.5177V26.8234H181.45V21.9178C181.45 20.6052 180.834 19.9404 179.679 19.9404C179.399 19.9175 179.116 19.9559 178.852 20.0527C178.587 20.1495 178.348 20.3025 178.149 20.5009C177.951 20.6994 177.798 20.9385 177.702 21.2015C177.607 21.4646 177.57 21.7452 177.595 22.0238V26.8233H175.961L175.961 15.3975Z" fill="white"/>
<path d="M192.613 24.6045C192.391 25.3555 191.91 26.0052 191.254 26.4398C190.599 26.8745 189.81 27.0664 189.026 26.982C188.48 26.9963 187.938 26.8926 187.437 26.6781C186.936 26.4636 186.488 26.1434 186.124 25.7399C185.76 25.3363 185.489 24.8589 185.33 24.341C185.171 23.823 185.127 23.2768 185.201 22.7403C185.129 22.2021 185.173 21.6547 185.332 21.1352C185.491 20.6157 185.761 20.1361 186.123 19.729C186.485 19.3219 186.931 18.9968 187.43 18.7756C187.93 18.5543 188.472 18.4423 189.019 18.4469C191.322 18.4469 192.712 20.0091 192.712 22.5897V23.1556H186.866V23.2464C186.84 23.548 186.878 23.8516 186.978 24.1376C187.077 24.4237 187.236 24.686 187.444 24.9076C187.651 25.1293 187.903 25.3054 188.183 25.4248C188.464 25.5441 188.766 25.6041 189.071 25.6007C189.461 25.6473 189.857 25.5774 190.208 25.4C190.559 25.2226 190.849 24.9457 191.04 24.6044L192.613 24.6045ZM186.866 21.9561H191.047C191.068 21.6803 191.03 21.4033 190.937 21.1428C190.843 20.8823 190.695 20.6442 190.503 20.4437C190.312 20.2432 190.079 20.0848 189.822 19.9786C189.565 19.8725 189.288 19.8209 189.01 19.8272C188.727 19.8237 188.447 19.8764 188.185 19.9821C187.923 20.0879 187.685 20.2446 187.485 20.443C187.286 20.6414 187.128 20.8775 187.021 21.1373C186.915 21.3972 186.862 21.6756 186.866 21.9561H186.866Z" fill="white"/>
</svg>
