<svg width="141" height="140" viewBox="0 0 141 140" fill="none" xmlns="http://www.w3.org/2000/svg">
<circle cx="70.5" cy="70" r="70" fill="#3865F3" fill-opacity="0.15"/>
<path d="M89.7007 68.44L80.5007 61.04V56C80.5497 54.9899 80.1961 54.0016 79.5175 53.2517C78.8389 52.5019 77.8907 52.0518 76.8807 52H54.0807C53.0778 52.0619 52.1397 52.5165 51.4696 53.2652C50.7996 54.0139 50.4514 54.9964 50.5007 56V76C50.4821 76.7942 50.7005 77.576 51.1279 78.2456C51.5553 78.9152 52.1725 79.4424 52.9007 79.76C52.5324 80.6611 52.3888 81.6383 52.4824 82.6072C52.576 83.5762 52.904 84.5078 53.438 85.3217C53.9721 86.1356 54.6961 86.8074 55.5477 87.279C56.3993 87.7506 57.3528 88.008 58.3261 88.0289C59.2993 88.0497 60.263 87.8334 61.134 87.3987C62.005 86.964 62.7572 86.3239 63.3256 85.5336C63.894 84.7433 64.2616 83.8266 64.3966 82.8625C64.5316 81.8985 64.4301 80.916 64.1007 80H76.8207C76.4918 80.9063 76.3861 81.8784 76.5125 82.8342C76.639 83.79 76.994 84.7012 77.5473 85.4907C78.1007 86.2802 78.8361 86.9248 79.6914 87.3697C80.5467 87.8147 81.4966 88.047 82.4607 88.047C83.4248 88.047 84.3747 87.8147 85.23 87.3697C86.0853 86.9248 86.8207 86.2802 87.3741 85.4907C87.9274 84.7012 88.2823 83.79 88.4088 82.8342C88.5353 81.8784 88.4296 80.9063 88.1007 80H88.5007C89.0311 80 89.5398 79.7893 89.9149 79.4142C90.29 79.0391 90.5007 78.5304 90.5007 78V70C90.4946 69.6963 90.4193 69.398 90.2807 69.1277C90.1421 68.8574 89.9437 68.6222 89.7007 68.44ZM86.5007 70.96V76H80.5007V66.16L86.5007 70.96ZM60.5007 82C60.5007 82.3956 60.3834 82.7822 60.1636 83.1111C59.9439 83.44 59.6315 83.6964 59.2661 83.8478C58.9006 83.9991 58.4985 84.0387 58.1105 83.9616C57.7225 83.8844 57.3662 83.6939 57.0865 83.4142C56.8068 83.1345 56.6163 82.7781 56.5391 82.3902C56.4619 82.0022 56.5016 81.6001 56.6529 81.2346C56.8043 80.8692 57.0607 80.5568 57.3895 80.3371C57.7184 80.1173 58.1051 80 58.5007 80C59.0311 80 59.5398 80.2107 59.9149 80.5858C60.29 80.9609 60.5007 81.4696 60.5007 82ZM84.5007 82C84.5007 82.3956 84.3834 82.7822 84.1636 83.1111C83.9439 83.44 83.6315 83.6964 83.2661 83.8478C82.9006 83.9991 82.4985 84.0387 82.1105 83.9616C81.7225 83.8844 81.3662 83.6939 81.0865 83.4142C80.8068 83.1345 80.6163 82.7781 80.5391 82.3902C80.4619 82.0022 80.5016 81.6001 80.6529 81.2346C80.8043 80.8692 81.0606 80.5568 81.3895 80.3371C81.7184 80.1173 82.1051 80 82.5007 80C83.0311 80 83.5398 80.2107 83.9149 80.5858C84.29 80.9609 84.5007 81.4696 84.5007 82Z" fill="#3865F3"/>
</svg>
