<svg width="199" height="57" viewBox="0 0 199 57" fill="none" xmlns="http://www.w3.org/2000/svg">
<path d="M92.88 18.56L85.2 39.5H80.1L72.42 18.56H76.92L82.68 35.21L88.41 18.56H92.88ZM111.448 30.83C111.448 31.43 111.408 31.97 111.328 32.45H99.1781C99.2781 33.65 99.6981 34.59 100.438 35.27C101.178 35.95 102.088 36.29 103.168 36.29C104.728 36.29 105.838 35.62 106.498 34.28H111.028C110.548 35.88 109.628 37.2 108.268 38.24C106.908 39.26 105.238 39.77 103.258 39.77C101.658 39.77 100.218 39.42 98.9381 38.72C97.6781 38 96.6881 36.99 95.9681 35.69C95.2681 34.39 94.9181 32.89 94.9181 31.19C94.9181 29.47 95.2681 27.96 95.9681 26.66C96.6681 25.36 97.6481 24.36 98.9081 23.66C100.168 22.96 101.618 22.61 103.258 22.61C104.838 22.61 106.248 22.95 107.488 23.63C108.748 24.31 109.718 25.28 110.398 26.54C111.098 27.78 111.448 29.21 111.448 30.83ZM107.098 29.63C107.078 28.55 106.688 27.69 105.928 27.05C105.168 26.39 104.238 26.06 103.138 26.06C102.098 26.06 101.218 26.38 100.498 27.02C99.7981 27.64 99.3681 28.51 99.2081 29.63H107.098ZM121.474 39.77C120.114 39.77 118.894 39.53 117.814 39.05C116.734 38.55 115.874 37.88 115.234 37.04C114.614 36.2 114.274 35.27 114.214 34.25H118.444C118.524 34.89 118.834 35.42 119.374 35.84C119.934 36.26 120.624 36.47 121.444 36.47C122.244 36.47 122.864 36.31 123.304 35.99C123.764 35.67 123.994 35.26 123.994 34.76C123.994 34.22 123.714 33.82 123.154 33.56C122.614 33.28 121.744 32.98 120.544 32.66C119.304 32.36 118.284 32.05 117.484 31.73C116.704 31.41 116.024 30.92 115.444 30.26C114.884 29.6 114.604 28.71 114.604 27.59C114.604 26.67 114.864 25.83 115.384 25.07C115.924 24.31 116.684 23.71 117.664 23.27C118.664 22.83 119.834 22.61 121.174 22.61C123.154 22.61 124.734 23.11 125.914 24.11C127.094 25.09 127.744 26.42 127.864 28.1H123.844C123.784 27.44 123.504 26.92 123.004 26.54C122.524 26.14 121.874 25.94 121.054 25.94C120.294 25.94 119.704 26.08 119.284 26.36C118.884 26.64 118.684 27.03 118.684 27.53C118.684 28.09 118.964 28.52 119.524 28.82C120.084 29.1 120.954 29.39 122.134 29.69C123.334 29.99 124.324 30.3 125.104 30.62C125.884 30.94 126.554 31.44 127.114 32.12C127.694 32.78 127.994 33.66 128.014 34.76C128.014 35.72 127.744 36.58 127.204 37.34C126.684 38.1 125.924 38.7 124.924 39.14C123.944 39.56 122.794 39.77 121.474 39.77ZM141.421 22.64C142.681 22.64 143.801 22.92 144.781 23.48C145.761 24.02 146.521 24.83 147.061 25.91C147.621 26.97 147.901 28.25 147.901 29.75V39.5H143.701V30.32C143.701 29 143.371 27.99 142.711 27.29C142.051 26.57 141.151 26.21 140.011 26.21C138.851 26.21 137.931 26.57 137.251 27.29C136.591 27.99 136.261 29 136.261 30.32V39.5H132.061V17.3H136.261V24.95C136.801 24.23 137.521 23.67 138.421 23.27C139.321 22.85 140.321 22.64 141.421 22.64ZM154.625 20.9C153.885 20.9 153.265 20.67 152.765 20.21C152.285 19.73 152.045 19.14 152.045 18.44C152.045 17.74 152.285 17.16 152.765 16.7C153.265 16.22 153.885 15.98 154.625 15.98C155.365 15.98 155.975 16.22 156.455 16.7C156.955 17.16 157.205 17.74 157.205 18.44C157.205 19.14 156.955 19.73 156.455 20.21C155.975 20.67 155.365 20.9 154.625 20.9ZM156.695 22.88V39.5H152.495V22.88H156.695ZM168.825 39.77C167.225 39.77 165.785 39.42 164.505 38.72C163.225 38 162.215 36.99 161.475 35.69C160.755 34.39 160.395 32.89 160.395 31.19C160.395 29.49 160.765 27.99 161.505 26.69C162.265 25.39 163.295 24.39 164.595 23.69C165.895 22.97 167.345 22.61 168.945 22.61C170.545 22.61 171.995 22.97 173.295 23.69C174.595 24.39 175.615 25.39 176.355 26.69C177.115 27.99 177.495 29.49 177.495 31.19C177.495 32.89 177.105 34.39 176.325 35.69C175.565 36.99 174.525 38 173.205 38.72C171.905 39.42 170.445 39.77 168.825 39.77ZM168.825 36.11C169.585 36.11 170.295 35.93 170.955 35.57C171.635 35.19 172.175 34.63 172.575 33.89C172.975 33.15 173.175 32.25 173.175 31.19C173.175 29.61 172.755 28.4 171.915 27.56C171.095 26.7 170.085 26.27 168.885 26.27C167.685 26.27 166.675 26.7 165.855 27.56C165.055 28.4 164.655 29.61 164.655 31.19C164.655 32.77 165.045 33.99 165.825 34.85C166.625 35.69 167.625 36.11 168.825 36.11ZM190.386 22.64C192.366 22.64 193.966 23.27 195.186 24.53C196.406 25.77 197.016 27.51 197.016 29.75V39.5H192.816V30.32C192.816 29 192.486 27.99 191.826 27.29C191.166 26.57 190.266 26.21 189.126 26.21C187.966 26.21 187.046 26.57 186.366 27.29C185.706 27.99 185.376 29 185.376 30.32V39.5H181.176V22.88H185.376V24.95C185.936 24.23 186.646 23.67 187.506 23.27C188.386 22.85 189.346 22.64 190.386 22.64Z" fill="#3865F3"/>
<rect y="0.5" width="56" height="56" rx="28" fill="#3865F3"/>
<path d="M20 15.1667L16 20.5V39.1667C16 39.8739 16.281 40.5522 16.781 41.0523C17.2811 41.5524 17.9594 41.8333 18.6667 41.8333H37.3333C38.0406 41.8333 38.7189 41.5524 39.219 41.0523C39.719 40.5522 40 39.8739 40 39.1667V20.5L36 15.1667H20Z" fill="white" stroke="#3865F3" stroke-width="2" stroke-linecap="round" stroke-linejoin="round"/>
<path d="M16 20.5H40" stroke="#3865F3" stroke-width="2" stroke-linecap="round" stroke-linejoin="round"/>
<path d="M33.3327 25.8333C33.3327 27.2478 32.7708 28.6044 31.7706 29.6045C30.7704 30.6047 29.4138 31.1666 27.9994 31.1666C26.5849 31.1666 25.2283 30.6047 24.2281 29.6045C23.2279 28.6044 22.666 27.2478 22.666 25.8333" stroke="#3865F3" stroke-width="2" stroke-linecap="round" stroke-linejoin="round"/>
</svg>
